<?xml version="1.0" encoding="utf-8"?>
<svg viewBox="0 0 148 148" width="148px" height="148px" xmlns="http://www.w3.org/2000/svg" xmlns:bx="https://boxy-svg.com">
  <g transform="matrix(1.017665, 0, 0, 1.017658, 5.468932, 6.124266)" bx:origin="0 0">
    <path fill="#008CD4" d="M 122.621 11.392 L 34.311 -4.18 C 23.895 -6.018 13.871 1.004 12.034 11.418 L -3.538 99.729 C -5.374 110.145 1.644 120.168 12.06 122.006 L 100.37 137.578 C 110.786 139.414 120.811 132.392 122.647 121.978 L 138.219 33.667 C 140.057 23.253 133.037 13.227 122.621 11.392" style="pointer-events: none;" bx:origin="0.000003 0.000002"/>
  </g>
  <path d="M 93.452 5.999 L 93.452 42.989 L 91.402 71.219 L 75.502 71.219 L 73.312 42.989 L 73.312 5.999 L 93.452 5.999 Z M 81.122 80.529 L 85.782 80.529 C 88.429 80.529 90.279 81.032 91.332 82.039 C 92.379 83.046 92.902 84.872 92.902 87.519 L 92.902 94.099 C 92.902 96.746 92.379 98.592 91.332 99.639 C 90.279 100.692 88.429 101.219 85.782 101.219 L 81.122 101.219 C 78.475 101.219 76.625 100.692 75.572 99.639 C 74.525 98.592 74.002 96.746 74.002 94.099 L 74.002 87.519 C 74.002 84.872 74.525 83.046 75.572 82.039 C 76.625 81.032 78.475 80.529 81.122 80.529 Z" style="fill: rgb(255, 255, 255); white-space: pre;" transform="matrix(0.9846140146255493, 0.17474500834941864, -0.17474500834941864, 0.9846140146255493, 0.9535350799560547, 7.179569244384766)"/>
</svg>